<?xml version="1.0" encoding="iso-8859-1"?>
<!-- Generator: Adobe Illustrator 19.0.0, SVG Export Plug-In . SVG Version: 6.00 Build 0)  -->
<svg version="1.1" id="Layer_1" xmlns="http://www.w3.org/2000/svg" xmlns:xlink="http://www.w3.org/1999/xlink" x="0px" y="0px"
	 viewBox="0 0 512.001 512.001" style="enable-background:new 0 0 512.001 512.001;" xml:space="preserve">
<g>
	<g>
		<path d="M256,68.897c-22.497,0-40.799,18.302-40.799,40.8c0,22.497,18.302,40.799,40.799,40.799s40.8-18.302,40.8-40.799
			S278.497,68.897,256,68.897z M256,134.396c-13.618,0-24.699-11.08-24.699-24.699c0-13.619,11.081-24.7,24.699-24.7
			c13.619,0,24.7,11.08,24.7,24.7C280.7,123.316,269.62,134.396,256,134.396z"/>
	</g>
</g>
<g>
	<g>
		<path d="M503.929,436.548h-4.233c-3.181-16.094-15.708-28.862-31.67-32.406v-34.465c0-4.447-3.604-8.05-8.05-8.05h-4.244V228.308
			h4.244c4.446,0,8.05-3.603,8.05-8.05v-22.739h24.767c8.594,0,15.784-5.306,18.315-13.52c2.532-8.213-0.422-16.647-7.524-21.487
			L305.966,27.875C291.175,17.798,273.898,12.471,256,12.471s-35.174,5.327-49.966,15.404L8.418,162.513
			C1.315,167.353-1.638,175.787,0.893,184c2.532,8.213,9.722,13.52,18.316,13.52h24.767v22.739c0,4.447,3.604,8.05,8.05,8.05h4.244
			v133.319h-4.244c-4.446,0-8.05,3.603-8.05,8.05v34.464c-15.963,3.544-28.489,16.312-31.67,32.406H8.073
			c-4.446,0-8.05,3.603-8.05,8.05v46.882c0,4.447,3.604,8.05,8.05,8.05h495.856c4.446,0,8.05-3.603,8.05-8.05v-46.882
			C511.979,440.151,508.375,436.548,503.929,436.548z M52.027,181.421v-0.001H19.21c-1.97,0-2.682-1.356-2.931-2.164
			c-0.249-0.808-0.424-2.329,1.204-3.438L215.101,41.18c12.107-8.249,26.25-12.609,40.901-12.609
			c14.65,0,28.794,4.361,40.901,12.609l197.616,134.639c1.628,1.109,1.453,2.63,1.204,3.438s-0.962,2.164-2.93,2.164h-32.816
			h-76.081h-34.542h-76.08H238.73h-76.081h-34.542H52.027z M396.187,212.208h-4.244v-14.689h59.982v14.689h-4.243H396.187z
			 M439.632,228.308v133.319h-35.396V228.308H439.632z M391.944,377.726h4.244h51.494h4.244v25.422h-59.982V377.726z
			 M349.352,361.627h-4.244V228.308h4.244c4.446,0,8.05-3.603,8.05-8.05v-22.739h18.443v22.739c0,4.447,3.604,8.05,8.05,8.05h4.244
			v133.319h-4.244c-4.446,0-8.05,3.603-8.05,8.05v33.472h-18.443v-33.472C357.402,365.231,353.798,361.627,349.352,361.627z
			 M285.564,212.208h-4.244v-14.689h59.981v14.689h-4.243H285.564z M329.009,228.308v133.319h-35.394V228.308H329.009z
			 M281.322,377.726h4.244h51.493h4.244v25.422h-59.981V377.726z M238.73,361.627h-4.244V228.308h4.244
			c4.446,0,8.05-3.603,8.05-8.05v-22.739h18.443v22.739c0,4.447,3.604,8.05,8.05,8.05h4.244v133.319h-4.244
			c-4.446,0-8.05,3.603-8.05,8.05v33.472h-18.443v-33.472C246.779,365.231,243.175,361.627,238.73,361.627z M174.942,212.208h-4.244
			v-14.689h59.982v14.689h-4.243H174.942z M218.387,228.308v133.319h-35.396V228.308H218.387z M170.699,377.726h4.244h51.494h4.244
			v25.422h-59.982V377.726z M128.107,361.627h-4.244V228.308h4.244c4.446,0,8.05-3.603,8.05-8.05v-22.739h18.443v22.739
			c0,4.447,3.604,8.05,8.05,8.05h4.244v133.319h-4.244c-4.446,0-8.05,3.603-8.05,8.05v33.472h-18.443v-33.472
			C136.157,365.231,132.553,361.627,128.107,361.627z M64.319,212.208h-4.244v-14.689h59.981v14.689h-4.243H64.319z
			 M107.763,228.308v133.319H72.369V228.308H107.763z M60.076,377.726h4.244h51.493h4.244v25.422H60.076V377.726z M52.964,419.248
			h75.143h34.542h76.081h34.542h76.08h34.542h75.143c11.165,0,20.667,7.257,24.039,17.3H28.925
			C32.296,426.505,41.799,419.248,52.964,419.248z M495.88,483.43h-0.001H16.122v-30.782h3.442h472.873h3.443V483.43z"/>
	</g>
</g>
<g>
</g>
<g>
</g>
<g>
</g>
<g>
</g>
<g>
</g>
<g>
</g>
<g>
</g>
<g>
</g>
<g>
</g>
<g>
</g>
<g>
</g>
<g>
</g>
<g>
</g>
<g>
</g>
<g>
</g>
</svg>
